<?xml version="1.0" encoding="UTF-8"?>
<svg id="Layer_2" data-name="Layer 2" xmlns="http://www.w3.org/2000/svg" viewBox="0 0 137.36 137.36">
  <defs>
    <style>
      .cls-1 {
        fill: #fff;
      }

      .cls-2 {
        fill: none;
        stroke: #fff;
        stroke-miterlimit: 10;
        stroke-width: 12px;
      }
    </style>
  </defs>
  <g id="Layer_2-2" data-name="Layer 2">
    <g id="insta">
      <path class="cls-2" d="M102.89,6H34.47c-15.72,0-28.47,12.75-28.47,28.47v68.43c0,15.72,12.75,28.47,28.47,28.47h68.43c15.72,0,28.47-12.75,28.47-28.47V34.47c0-15.72-12.75-28.47-28.47-28.47ZM97.91,68.68c0,16.15-13.09,29.23-29.23,29.23h0c-16.15,0-29.23-13.09-29.23-29.23h0c0-16.15,13.09-29.23,29.23-29.23h0c16.15,0,29.23,13.09,29.23,29.23h0Z"/>
      <rect class="cls-2" x="39.45" y="39.45" width="58.47" height="58.47" rx="29.23" ry="29.23"/>
      <circle class="cls-1" cx="105.83" cy="30.68" r="6.62" transform="translate(-4.22 25.14) rotate(-13.28)"/>
    </g>
  </g>
</svg>